<?xml version="1.0" encoding="utf-8"?>
<!DOCTYPE svg PUBLIC "-//W3C//DTD SVG 1.1//EN" "http://www.w3.org/Graphics/SVG/1.1/DTD/svg11.dtd">
<svg version="1.1" xmlns="http://www.w3.org/2000/svg" xmlns:xlink="http://www.w3.org/1999/xlink" x="0px" y="0px" width="1024px" height="1024px" viewBox="0 0 1024 1024" enable-background="new 0 0 1024 1024" xml:space="preserve">
<metadata> Free Icon Download -- www.onlinewebfonts.com </metadata>

  <path d="M885.285728 585.883731c-62.696947 24.648376-135.457088 38.805818-213.138308 38.805818-47.397496 0-92.795453-5.528923-135.38034-15.223726 0 0-107.628276-15.223726-153.877623-15.223726-66.370617 0-128.549771 11.116175-182.192505 30.448476 0 0-19.700691 15.223726-30.942733 15.223726-16.817014 0-30.448476-13.631462-30.448476-30.448476 0-16.815991 30.449499-37.311791 30.449499-37.311791 62.696947-24.6494 135.458111-38.806841 213.139332-38.806841 47.396473 0 158.080342 15.222703 158.080342 15.222703 40.727587 9.798157 84.927251 15.223726 131.176598 15.223726 66.370617 0 128.548748-11.115152 182.191482-30.447453 0 0 19.700691-15.223726 30.942733-15.223726 16.815991 0 30.449499 13.631462 30.449499 30.448476C915.734204 565.386908 885.285728 585.883731 885.285728 585.883731zM885.285728 418.420695c-62.696947 24.648376-135.457088 38.805818-213.138308 38.805818-47.397496 0-92.795453-5.529947-135.38034-15.223726 0 0-107.627253-15.223726-153.877623-15.223726-66.370617 0-128.550795 11.116175-182.193529 30.448476 0 0-19.699668 15.223726-30.94171 15.223726-16.817014 0-30.448476-13.631462-30.448476-30.448476 0-16.815991 30.449499-37.312814 30.449499-37.312814 62.696947-24.6494 135.458111-38.806841 213.139332-38.806841 47.397496 0 158.081365 15.223726 158.081365 15.223726 40.726563 9.798157 84.926228 15.223726 131.175575 15.223726 66.37164 0 128.549771-11.115152 182.192505-30.448476 0 0 19.699668-15.223726 30.94171-15.223726 16.815991 0 30.449499 13.632485 30.449499 30.448476C915.734204 397.922848 885.285728 418.420695 885.285728 418.420695zM885.285728 250.955612c-62.696947 24.648376-135.457088 38.805818-213.138308 38.805818-47.397496 0-92.795453-5.529947-135.38034-15.223726 0 0-107.627253-15.223726-153.877623-15.223726-66.370617 0-128.550795 11.116175-182.193529 30.448476 0 0-19.699668 15.223726-30.94171 15.223726-16.817014 0-30.448476-13.631462-30.448476-30.448476 0-16.815991 30.449499-37.312814 30.449499-37.312814 62.696947-24.6494 135.458111-38.806841 213.139332-38.806841 46.680159 0 158.080342 15.223726 158.080342 15.223726 40.727587 9.798157 84.927251 15.223726 131.176598 15.223726 66.37164 0 128.550795-11.115152 182.193529-30.448476 0 0 19.698644-15.223726 30.940686-15.223726 16.815991 0 30.449499 13.632485 30.449499 30.448476C915.734204 230.457766 885.285728 250.955612 885.285728 250.955612zM169.755242 739.618091c62.696947-24.648376 135.458111-38.806841 213.139332-38.806841 47.397496 0 158.080342 15.223726 158.080342 15.223726 40.727587 9.798157 84.927251 15.223726 131.176598 15.223726 66.37164 0 128.550795-11.115152 182.193529-30.448476 0 0 19.698644-15.223726 30.940686-15.223726 16.815991 0 30.449499 13.632485 30.449499 30.448476 0 16.817014-30.449499 37.313837-30.449499 37.313837-62.696947 24.648376-135.457088 38.805818-213.138308 38.805818-47.39852 0-92.795453-5.529947-135.381363-15.223726 0 0-107.627253-15.223726-153.8766-15.223726-66.370617 0-128.549771 11.116175-182.192505 30.448476 0 0-19.700691 15.223726-30.942733 15.223726-16.817014 0-30.448476-13.631462-30.448476-30.448476C139.305743 760.115937 169.755242 739.618091 169.755242 739.618091z" />


</svg>